<?xml version="1.0" encoding="utf-8" ?>
<svg baseProfile="full" height="300mm" version="1.1" viewBox="0,0,200,300" width="200mm" xmlns="http://www.w3.org/2000/svg" xmlns:ev="http://www.w3.org/2001/xml-events" xmlns:xlink="http://www.w3.org/1999/xlink"><defs /><rect fill="#222222" height="300" width="200" x="0" y="0" /><text fill="#FFFFFF" style="font-size:12px; font-family:Arial; font-weight:bold;" x="10" y="20">Rayburn Running</text><text fill="#FFFFFF" style="font-size:4px; font-family:Arial" x="10" y="280">ATHLETE</text><text fill="#FFFFFF" style="font-size:9px; font-family:Arial" x="10" y="290">Rayburn</text><text fill="#FFFFFF" style="font-size:4px; font-family:Arial" x="120" y="280">STATISTICS</text><text fill="#FFFFFF" style="font-size:3px; font-family:Arial" x="120" y="285">Number: 2</text><text fill="#FFFFFF" style="font-size:3px; font-family:Arial" x="120" y="290">Weekly: 2.0</text><text fill="#FFFFFF" style="font-size:3px; font-family:Arial" x="141" y="285">Total: 2.6 km</text><text fill="#FFFFFF" style="font-size:3px; font-family:Arial" x="141" y="290">Avg: 1.3 km</text><text fill="#FFFFFF" style="font-size:3px; font-family:Arial" x="167" y="285">Min: 0.9 km</text><text fill="#FFFFFF" style="font-size:3px; font-family:Arial" x="167" y="290">Max: 1.7 km</text><polyline fill="none" points="126.37283131107688,72.26295449957252 117.02549869567156,61.22642247658223 109.0134993083775,49.401547954883426 85.64516777172685,36.0 72.29183546081185,39.153307646512985 58.93850315362215,69.1096613635309 72.95950207859278,97.48924983618781 76.29783515632153,104.5841294634156 80.30383484810591,110.89068325888366 85.64516777172685,122.71545672928914 92.32183392345905,134.54021076345816 115.690165463835,144.0 137.05549715831876,130.59862824482843 141.06149685010314,113.25563950836658 136.38783054053783,100.6425305348821 132.38183084875345,95.1242884057574 129.0434977710247,89.60604204330593 122.36683161556721,78.56953662447631 119.02849853783846,72.26295449957252 116.35783208161592,67.53301427746192 110.34883254021406,55.70815011719242 107.67816607654095,50.97819901164621 99.66616669297218,43.09494026284665 87.64816761761904,38.36498086573556 74.29483531042933,39.153307646512985 60.94150299951434,51.766524413600564 62.2768362313509,81.72282561520115 64.27983607724309,87.24107802193612 67.61816915124655,92.75932619674131 74.29483531042933,103.79580984963104 77.63316838443279,110.10236433753744 80.97150146216154,115.62059497879818 84.97750115394592,121.92713910201564 84.97750115394592,121.92713910201564 84.97750115394592,121.92713910201564 84.97750115394592,121.92713910201564 84.97750115394592,121.92713910201564 84.97750115394592,121.92713910201564 84.97750115394592,121.92713910201564 84.97750115394592,121.92713910201564 84.97750115394592,121.92713910201564" stroke="#4dd2ff" stroke-linecap="round" stroke-linejoin="round" stroke-width="0.5"><title>2020-11-05 0.9km</title></polyline><polyline fill="none" points="144.7551362067461,233.91445217793807 144.10177655145526,233.143026183825 145.40849585831165,233.143026183825 145.40849585831165,233.143026183825 144.7551362067461,233.143026183825 144.10177655145526,231.60017394274473 142.1416975967586,228.5144684468396 140.8349782899022,225.42876160005108 139.52825898304582,223.11448057787493 137.56818002462387,220.02877136366442 130.38122384622693,210.7716356050223 118.62075009942055,193.80018844129518 115.3539518378675,188.40017394628376 108.16699565947056,176.82870036689565 105.55355704948306,170.6572400154546 96.40652190893888,161.40003934595734 67.00533754378557,161.40003934595734 67.00533754378557,161.40003934595734 67.00533754378557,161.40003934595734 67.00533754378557,161.40003934595734 67.00533754378557,161.40003934595734 67.00533754378557,161.40003934595734 67.00533754378557,161.40003934595734 67.00533754378557,161.40003934595734 67.00533754378557,161.40003934595734 78.76581129059196,226.9716151934117 81.37924990057945,232.37160010635853 87.25948677584529,243.94298240030184 89.87292538583279,249.342954300344 96.40652190893888,259.3714625495486 122.54090801626444,264.0 132.34130280464888,256.2857692227699 140.18161863461137,240.08585708402097 138.2215396799147,227.74304186273366 126.46106592938304,203.82877580169588 123.19426766782999,197.65733911655843 120.5808290578425,192.25732757803053 114.0472325347364,181.45729207992554 110.78043426945806,176.05726811802015 107.51363600417972,170.6572400154546 99.67332017421722,161.40003934595734 88.56620607897639,156.7714344463311 67.00533754378557,160.6286054062657 63.08517962694168,165.25720777036622 57.858302406966686,171.42867285385728 55.89822344854474,185.31444951612502 55.89822344854474,185.31444951612502 55.89822344854474,185.31444951612502 55.89822344854474,185.31444951612502 55.89822344854474,185.31444951612502 55.89822344854474,185.31444951612502 55.89822344854474,185.31444951612502 55.89822344854474,185.31444951612502 55.89822344854474,185.31444951612502 98.36660086736083,162.9429069692269 83.99268851429224,157.5428688088432 65.04525858536363,162.17147320136428 57.858302406966686,193.0287580518052 63.73853928223252,205.3716341261752 67.00533754378557,211.54306405037642 70.92549546062946,217.71448856359348 77.45909198746085,228.5144684468396 80.72589025273919,234.68587808823213 83.3393288590014,239.31443176604807 89.21956573426723,249.342954300344 103.59347808733582,260.9143087035045 109.47371496260166,262.45715452032164 109.47371496260166,262.45715452032164 109.47371496260166,262.45715452032164 109.47371496260166,262.45715452032164 109.47371496260166,262.45715452032164 109.47371496260166,262.45715452032164 109.47371496260166,262.45715452032164 109.47371496260166,262.45715452032164 109.47371496260166,262.45715452032164 131.68794314935803,217.71448856359348 129.7278641909361,214.6287769842893 129.07450454309583,212.31449240958318 127.11442558094859,207.68592098122463 125.80770627781749,204.6002050070092 124.5009869709611,203.05734651070088 122.54090801626444,200.7430581348017 120.5808290578425,196.11447909940034 116.6606711409986,190.7144663790241 116.6606711409986,187.62874296540394 116.00731148943305,185.31444951612502 112.74051322788,179.9144285125658 110.1270746178925,177.60013253241777 106.86027635633945,171.42867285385728 104.90019739419222,169.11437408206984 101.63339913263917,164.4857742539607 99.01996052265167,162.9429069692269 97.05988156422973,160.6286054062657 91.17964468896389,158.31430308427662 88.56620607897639,157.5428688088432 85.29940781742334,156.7714344463311 79.4191709458828,156.0 73.53893407061696,159.08573727542534 70.92549546062946,160.6286054062657 68.31205684691668,161.40003934595734 63.08517962694168,165.25720777036622 59.16502171382308,169.88580708950758 56.55158310383558,175.28583578579128 54.59150414541364,181.45729207992554 55.89822344854474,187.62874296540394 57.204942755401134,192.25732757803053 57.204942755401134,192.25732757803053 57.204942755401134,192.25732757803053 57.204942755401134,192.25732757803053 57.204942755401134,192.25732757803053 57.204942755401134,192.25732757803053 57.204942755401134,192.25732757803053 57.204942755401134,192.25732757803053 57.204942755401134,192.25732757803053 79.4191709458828,228.5144684468396 80.72589025273919,231.60017394274473 82.0326095558703,233.143026183825 83.3393288590014,235.45730391144753 84.64604816585779,238.5430063647218 87.25948677584529,243.17155750701204 89.87292538583279,246.25725657725707 89.87292538583279,247.80010560853407 91.83300434425473,252.4286506678909 95.75316225737333,256.2857692227699 120.5808290578425,256.2857692227699 131.68794314935803,247.02868113527074 131.68794314935803,247.02868113527074 131.68794314935803,247.02868113527074 131.68794314935803,247.02868113527074 131.68794314935803,247.02868113527074 131.68794314935803,247.02868113527074 131.68794314935803,247.02868113527074 131.68794314935803,247.02868113527074 131.68794314935803,247.02868113527074 112.74051322788,186.85731189884245 106.20691670104861,169.88580708950758 102.28675878420472,165.25720777036622 99.67332017421722,162.9429069692269 97.05988156422973,160.6286054062657 91.17964468896389,157.5428688088432 87.91284642741084,156.7714344463311 85.29940781742334,156.0 82.0326095558703,156.0 74.84565337747335,156.7714344463311 70.27213580533862,161.40003934595734 65.04525858536363,164.4857742539607 60.471741016954184,166.80007454939187 58.51166205853224,169.88580708950758 55.89822344854474,177.60013253241777 55.24486379697919,179.9144285125658 54.59150414541364,186.0858807512559 55.24486379697919,189.17160484101623 55.89822344854474,191.48589702043682 58.51166205853224,197.65733911655843 60.471741016954184,200.7430581348017 62.43181997537613,203.05734651070088 63.73853928223252,206.1430631619878 65.69861824065447,208.4573497651145 67.00533754378557,211.54306405037642 68.31205684691668,213.85734887886792 71.5788551159203,218.4859162485227 73.53893407061696,220.8001987929456 74.84565337747335,223.11448057787493 76.8057323358953,226.20018843794242 78.1124516390264,228.5144684468396 79.4191709458828,230.82874769624323 81.37924990057945,232.37160010635853 83.99268851429224,237.77158087771386 85.29940781742334,240.85728231444955 86.60612712427974,243.17155750701204 89.21956573426723,246.25725657725707 89.21956573426723,246.25725657725707 89.21956573426723,246.25725657725707 89.21956573426723,246.25725657725707 89.21956573426723,246.25725657725707 89.21956573426723,246.25725657725707 89.21956573426723,246.25725657725707 89.21956573426723,246.25725657725707 89.21956573426723,246.25725657725707" stroke="#4dd2ff" stroke-linecap="round" stroke-linejoin="round" stroke-width="0.5"><title>2020-11-03 1.7km</title></polyline></svg>