<?xml version="1.0" encoding="utf-8" ?>
<svg baseProfile="full" height="300mm" version="1.1" viewBox="0,0,200,300" width="200mm" xmlns="http://www.w3.org/2000/svg" xmlns:ev="http://www.w3.org/2001/xml-events" xmlns:xlink="http://www.w3.org/1999/xlink"><defs /><rect fill="#222222" height="300" width="200" x="0" y="0" /><text fill="#FFFFFF" style="font-size:12px; font-family:Arial; font-weight:bold;" x="10" y="20">Over 3km Runs</text><text fill="#FFFFFF" style="font-size:4px; font-family:Arial" x="10" y="280">ATHLETE</text><text fill="#FFFFFF" style="font-size:9px; font-family:Arial" x="10" y="290">Rayburn</text><text fill="#FFFFFF" style="font-size:4px; font-family:Arial" x="120" y="280">STATISTICS</text><text fill="#FFFFFF" style="font-size:3px; font-family:Arial" x="120" y="285">Number: 1</text><text fill="#FFFFFF" style="font-size:3px; font-family:Arial" x="120" y="290">Weekly: 1.0</text><text fill="#FFFFFF" style="font-size:3px; font-family:Arial" x="141" y="285">Total: 3.2 km</text><text fill="#FFFFFF" style="font-size:3px; font-family:Arial" x="141" y="290">Avg: 3.2 km</text><text fill="#FFFFFF" style="font-size:3px; font-family:Arial" x="167" y="285">Min: 3.2 km</text><text fill="#FFFFFF" style="font-size:3px; font-family:Arial" x="167" y="290">Max: 3.2 km</text><polyline fill="none" points="55.59114772826433,112.41203066520393 56.48829625919461,129.35325810220093 58.282593324780464,148.41210352350026 59.179741851985455,157.94151215907186 60.974038917571306,166.41208973526955 62.76833597570658,186.52968177385628 138.1288125552237,201.35314388480037 139.92310961708426,180.17676248960197 138.1288125552237,169.5885544186458 136.33451549708843,149.47092716861516 135.43736696243286,128.29443225637078 134.54021843895316,118.76499442663044 91.47708896175027,71.11766455229372 61.8711874447763,96.5296030100435 58.282593324780464,114.52968571707606 60.076890382915735,124.05912771075964 60.974038917571306,132.5297349439934 60.974038917571306,150.52975069824606 60.974038917571306,159.00033476110548 61.8711874447763,167.47091141249985 62.76833597570658,184.41204247437418 63.66548450663686,193.94141566753387 68.15122716128826,210.88250039611012 85.1970492452383,226.7647404000163 101.34572279825807,231.0 125.56873312592506,223.58829448278993 137.2316640280187,209.8236834704876 144.40885227173567,172.76501805521548 143.5117037408054,163.23562401346862 141.71740668267012,145.23563189059496 141.71740668267012,135.70621074642986 141.71740668267012,127.23560629412532 139.92310961708426,109.23554721660912 138.1288125552237,99.70609062816948 100.44857426732779,69.0 78.01986099779606,80.64714929368347 73.53411834314466,83.82364212162793 61.8711874447763,97.58843232970685 58.282593324780464,115.58851306699216 58.282593324780464,125.11795402225107 58.282593324780464,133.58856032788754 58.282593324780464,151.588574109599 59.179741851985455,160.05915724858642 59.179741851985455,168.52973297331482 60.974038917571306,185.47086218371987 62.76833597570658,195.00023433100432 69.04837568849325,210.88250039611012 79.81415805965662,224.64710990525782 93.27138601988554,231.0 118.39154488220811,229.94118527229875 131.84877284243703,216.17658329196274 139.92310961708426,200.29432591609657 143.5117037408054,184.41204247437418 143.5117037408054,174.88265990186483 142.6145552098751,166.41208973526955 141.71740668267012,149.47092716861516 140.82025814801455,139.94151018932462 139.92310961708426,132.5297349439934 138.1288125552237,115.58851306699216 136.33451549708843,107.11789101082832 134.54021843895316,98.64726153668016 127.36303018778563,83.82364212162793 95.96283161267638,72.17649665195495 81.60845512151718,76.4118238966912 69.04837568849325,87.0001339064911 60.076890382915735,99.70609062816948 56.48829625919461,115.58851306699216 56.48829625919461,126.17678021453321 60.974038917571306,147.3532797601074 60.974038917571306,155.82386660669 61.8711874447763,164.29444603901356 63.66548450663686,181.23558266088367 65.45978156849742,188.6473206076771 70.8426727540791,204.52959709893912 92.37423748895526,225.70592520944774 99.55142573267221,226.7647404000163 114.80295075848699,225.70592520944774 139.92310961708426,199.23550783284009 143.5117037408054,181.23558266088367 141.71740668267012,165.35326794534922 139.92310961708426,156.88268944155425 138.1288125552237,149.47092716861516 137.2316640280187,134.64738559443504 137.2316640280187,120.88264809176326 136.33451549708843,108.17671917192638 134.54021843895316,99.70609062816948 129.15732725337148,87.0001339064911 106.72861398383975,69.0 98.65427720919251,70.05883233156055 83.40275218337774,74.29416050761938 69.94552421942353,82.76481129322201 60.076890382915735,102.8825772004202 60.076890382915735,110.29437514953315 60.974038917571306,118.76499442663044 61.8711874447763,133.58856032788754 61.8711874447763,141.00033476389945 62.76833597570658,148.41210352350026 65.45978156849742,165.35326794534922 66.3569300994277,172.76501805521548 67.25407863035798,181.23558266088367 70.8426727540791,196.0590528799221 78.01986099779606,209.8236834704876 88.78564336895943,218.29421564098448 131.84877284243703,213.0001339027658 143.5117037408054,195.00023433100432 141.71740668267012,175.94148065056652 139.02596108987927,159.00033476110548 138.1288125552237,150.52975069824606 136.33451549708843,141.00033476389945 136.33451549708843,115.58851306699216 132.74592136964202,98.64726153668016 126.46588166058064,84.88247283175588 107.62576251104474,73.23532863613218 85.1970492452383,73.23532863613218 73.53411834314466,81.70598035119474 63.66548450663686,92.29428456630558 60.076890382915735,108.17671917192638 60.076890382915735,115.58851306699216 60.974038917571306,132.5297349439934 60.974038917571306,138.8826855039224 61.8711874447763,146.29445588495582 62.76833597570658,163.23562401346862 63.66548450663686,171.7061969600618 64.56263303756714,179.11794220469892 66.3569300994277,195.00023433100432 78.91700952872634,216.17658329196274 92.37423748895526,221.47066329512745 106.72861398383975,222.5294789467007 125.56873312592506,214.05895048379898 133.6430699042976,201.35314388480037 137.2316640280187,196.0590528799221 139.02596108987927,183.35322265326977 137.2316640280187,175.94148065056652 137.2316640280187,167.47091141249985 133.6430699042976,144.17680778354406 135.43736696243286,135.70621074642986 134.54021843895316,119.82382131647319 133.6430699042976,111.3532029632479 132.74592136964202,103.94140582438558 129.15732725337148,89.117794518359 119.28869341313839,76.4118238966912 105.83146545290947,71.11766455229372 91.47708896175027,72.17649665195495 76.2255639359355,77.47065542079508 61.8711874447763,97.58843232970685 57.38544479385018,128.29443225637078 60.076890382915735,142.05915921833366 61.8711874447763,157.94151215907186 62.76833597570658,166.41208973526955 62.76833597570658,174.88265990186483 66.3569300994277,191.82377799414098 75.3284154087305,208.76486642565578 86.0941977724433,221.47066329512745 119.28869341313839,224.64710990525782 136.33451549708843,206.6472319951281 139.92310961708426,199.23550783284009 141.71740668267012,167.47091141249985 140.82025814801455,160.05915724858642 139.92310961708426,151.588574109599 136.33451549708843,136.76503578014672 135.43736696243286,129.35325810220093 119.28869341313839,81.70598035119474 88.78564336895943,73.23532863613218 80.71130659431219,75.35299226082861 60.076890382915735,98.64726153668016 58.282593324780464,102.8825772004202 57.38544479385018,108.17671917192638 57.38544479385018,116.64734030235559 59.179741851985455,125.11795402225107 60.076890382915735,146.29445588495582 68.15122716128826,175.94148065056652 68.15122716128826,187.58850124757737 77.12271246686578,216.17658329196274 123.7744360677898,221.47066329512745 139.92310961708426,198.1766896303743 140.82025814801455,179.11794220469892 139.92310961708426,168.52973297331482 139.92310961708426,160.05915724858642 137.2316640280187,142.05915921833366 136.33451549708843,131.4709094464779 130.95162431150675,100.7649196004495 119.28869341313839,84.88247283175588 55.59114772826433,112.41203066520393" stroke="#4DD2FF" stroke-linecap="round" stroke-linejoin="round" stroke-width="0.5"><title>2022-05-16 3.2km</title></polyline></svg>